# xmcd
#
# Track frame offsets:
#	151
#	14658
#	27137
#	40654
#	53281
#	66888
#	79893
#	90940
#	102897
#	121372
#
# Disc length: 1803 seconds
#
# Revision: 1
# Processed by: cddbd v1.5.2PL0 Copyright (c) Steve Scherf et al.
# Submitted via: audiograbber 1.83.01
#
DISCID=6e07090a
DTITLE=Tamie Haupricht - Tamie Haupricht
DYEAR=1998
DGENRE=Country
TTITLE0=Oh I Can´t Stop Loving You
TTITLE1=When I See You Again
TTITLE2=I Hope You´re Satisfied
TTITLE3=Don´t Lift Me Up
TTITLE4=Jailhouse Rock
TTITLE5=You Don´t Own Me
TTITLE6=After All These Years
TTITLE7=Don´t Look Back
TTITLE8=Darling What´s Wrong With You
TTITLE9=Tear It Up Tonight
EXTD=
EXTT0=
EXTT1=
EXTT2=
EXTT3=
EXTT4=
EXTT5=
EXTT6=
EXTT7=
EXTT8=
EXTT9=
PLAYORDER=
